<svg width="45" height="45" viewBox="0 0 45 45" fill="none" xmlns="http://www.w3.org/2000/svg">
<g id="Arrow - Right Square">
<g id="Iconly/Bulk/Arrow   Right Square">
<g id="Arrow   Right Square">
<path id="Fill 1" opacity="0.4" d="M14.7729 41.0575H30.0163C36.621 41.0575 41.057 36.8099 41.057 30.4852V14.3049C41.057 7.98021 36.621 3.73264 30.0163 3.73264H14.7729C8.1701 3.73264 3.73218 7.98207 3.73218 14.3068L3.73218 30.4852C3.73218 36.8099 8.1701 41.0575 14.7729 41.0575Z" fill="#DD9934"/>
<path id="Fill 4" d="M23.9911 30.3813L31.0175 23.3866C31.5457 22.8603 31.5457 21.9291 31.0175 21.4009L23.9911 14.4062C23.4425 13.8613 22.556 13.8632 22.011 14.4118C21.4661 14.9605 21.4661 15.8451 22.0148 16.3919L26.6375 20.9959H14.7775C14.003 20.9959 13.3778 21.623 13.3778 22.3956C13.3778 23.1682 14.003 23.7953 14.7775 23.7953H26.6375L22.0148 28.3975C21.7404 28.6718 21.6042 29.0301 21.6042 29.3903C21.6042 29.7468 21.7404 30.1051 22.011 30.3775C22.556 30.9244 23.4425 30.9262 23.9911 30.3813Z" fill="white"/>
</g>
</g>
</g>
</svg>
