<svg width="45" height="45" viewBox="0 0 45 45" fill="none" xmlns="http://www.w3.org/2000/svg">
<g id="Arrow - Left Square">
<g id="Iconly/Bulk/Arrow   Left Square">
<g id="Arrow   Left Square">
<path id="Fill 1" opacity="0.4" d="M30.0168 3.73222L14.7733 3.73222C8.16871 3.73222 3.73265 7.97979 3.73265 14.3045L3.73265 30.4848C3.73265 36.8095 8.16871 41.0571 14.7733 41.0571L30.0168 41.0571C36.6196 41.0571 41.0575 36.8076 41.0575 30.4829L41.0575 14.3045C41.0575 7.97979 36.6196 3.73222 30.0168 3.73222Z" fill="#DD9934"/>
<path id="Fill 4" d="M20.7985 14.4084L13.7721 21.4031C13.244 21.9294 13.244 22.8607 13.7721 23.3888L20.7985 30.3835C21.3472 30.9284 22.2337 30.9265 22.7786 30.3779C23.3236 29.8292 23.3236 28.9446 22.7749 28.3978L18.1522 23.7938H30.0122C30.7867 23.7938 31.4119 23.1667 31.4119 22.3941C31.4119 21.6215 30.7867 20.9944 30.0122 20.9944L18.1522 20.9944L22.7749 16.3923C23.0492 16.1179 23.1855 15.7596 23.1855 15.3994C23.1855 15.043 23.0492 14.6846 22.7786 14.4122C22.2337 13.8654 21.3472 13.8635 20.7985 14.4084Z" fill="white"/>
</g>
</g>
</g>
</svg>
