<svg width="57" height="45" viewBox="0 0 57 45" fill="none" xmlns="http://www.w3.org/2000/svg">
<path id="&#226;&#128;&#156;" d="M56.9554 44.7898H35.4471C33.258 38.1543 32.1634 31.2976 32.1634 24.2197C32.1634 17.1418 34.0789 11.3357 37.9099 6.80142C41.8503 2.26714 47.5968 0 55.1494 0V10.7827C49.4576 10.7827 46.6117 14.4323 46.6117 21.7313V24.3856H56.9554V44.7898ZM25.7602 44.7898H4.25185C2.06271 38.1543 0.96814 31.2976 0.96814 24.2197C0.96814 17.1418 2.88364 11.3357 6.71463 6.80142C10.6551 2.26714 16.4016 0 23.9541 0V10.7827C18.2623 10.7827 15.4165 14.4323 15.4165 21.7313V24.3856H25.7602V44.7898Z" fill="#DD9934" fill-opacity="0.3"/>
</svg>
