<svg width="21" height="13" viewBox="0 0 21 13" fill="none" xmlns="http://www.w3.org/2000/svg">
<path id="Vector" d="M7.16667 11.6429C7.16667 11.4155 7.25446 11.1975 7.41074 11.0368C7.56702 10.876 7.77899 10.7857 8 10.7857H13C13.221 10.7857 13.433 10.876 13.5893 11.0368C13.7455 11.1975 13.8333 11.4155 13.8333 11.6429C13.8333 11.8702 13.7455 12.0882 13.5893 12.2489C13.433 12.4097 13.221 12.5 13 12.5H8C7.77899 12.5 7.56702 12.4097 7.41074 12.2489C7.25446 12.0882 7.16667 11.8702 7.16667 11.6429ZM3.83333 6.5C3.83333 6.27267 3.92113 6.05465 4.07741 5.89391C4.23369 5.73316 4.44565 5.64286 4.66667 5.64286H16.3333C16.5543 5.64286 16.7663 5.73316 16.9226 5.89391C17.0789 6.05465 17.1667 6.27267 17.1667 6.5C17.1667 6.72733 17.0789 6.94535 16.9226 7.10609C16.7663 7.26684 16.5543 7.35714 16.3333 7.35714H4.66667C4.44565 7.35714 4.23369 7.26684 4.07741 7.10609C3.92113 6.94535 3.83333 6.72733 3.83333 6.5ZM0.5 1.35714C0.5 1.12981 0.587798 0.911797 0.744078 0.751051C0.900358 0.590306 1.11232 0.5 1.33333 0.5H19.6667C19.8877 0.5 20.0996 0.590306 20.2559 0.751051C20.4122 0.911797 20.5 1.12981 20.5 1.35714C20.5 1.58447 20.4122 1.80249 20.2559 1.96323C20.0996 2.12398 19.8877 2.21429 19.6667 2.21429H1.33333C1.11232 2.21429 0.900358 2.12398 0.744078 1.96323C0.587798 1.80249 0.5 1.58447 0.5 1.35714Z" fill="white"/>
</svg>
