<svg width="21" height="15" viewBox="0 0 21 15" fill="none" xmlns="http://www.w3.org/2000/svg">
<path id="Vector" d="M0.532715 14.8818V8.88184C0.532715 8.43184 0.624382 8.0235 0.807715 7.65684C0.991048 7.29017 1.23271 6.96517 1.53271 6.68184V3.88184C1.53271 3.0485 1.82438 2.34017 2.40771 1.75684C2.99105 1.1735 3.69938 0.881836 4.53271 0.881836H8.53271C8.91605 0.881836 9.27438 0.952836 9.60771 1.09484C9.94105 1.23684 10.2494 1.4325 10.5327 1.68184C10.816 1.43184 11.1244 1.23617 11.4577 1.09484C11.791 0.953502 12.1494 0.882503 12.5327 0.881836H16.5327C17.366 0.881836 18.0744 1.1735 18.6577 1.75684C19.241 2.34017 19.5327 3.0485 19.5327 3.88184V6.68184C19.8327 6.96517 20.0744 7.29017 20.2577 7.65684C20.441 8.0235 20.5327 8.43184 20.5327 8.88184V14.8818H18.5327V12.8818H2.53271V14.8818H0.532715ZM11.5327 5.88184H17.5327V3.88184C17.5327 3.5985 17.4367 3.36084 17.2447 3.16884C17.0527 2.97684 16.8154 2.88117 16.5327 2.88184H12.5327C12.2494 2.88184 12.0117 2.97784 11.8197 3.16984C11.6277 3.36184 11.532 3.59917 11.5327 3.88184V5.88184ZM3.53271 5.88184H9.53271V3.88184C9.53271 3.5985 9.43672 3.36084 9.24471 3.16884C9.05271 2.97684 8.81538 2.88117 8.53271 2.88184H4.53271C4.24938 2.88184 4.01171 2.97784 3.81972 3.16984C3.62772 3.36184 3.53205 3.59917 3.53271 3.88184V5.88184Z" fill="white" fill-opacity="0.4"/>
</svg>
