<svg width="16" height="17" viewBox="0 0 16 17" fill="none" xmlns="http://www.w3.org/2000/svg">
<path id="Vector" d="M8 0.975098C5.829 0.975098 5.556 0.985098 4.703 1.0231C3.85 1.0631 3.269 1.1971 2.76 1.3951C2.22609 1.59592 1.74249 1.91092 1.343 2.3181C0.936076 2.71779 0.621107 3.20134 0.42 3.7351C0.222 4.2431 0.087 4.8251 0.048 5.6751C0.01 6.5301 0 6.8021 0 8.9761C0 11.1481 0.01 11.4201 0.048 12.2731C0.088 13.1251 0.222 13.7061 0.42 14.2151C0.625 14.7411 0.898 15.1871 1.343 15.6321C1.787 16.0771 2.233 16.3511 2.759 16.5551C3.269 16.7531 3.849 16.8881 4.701 16.9271C5.555 16.9651 5.827 16.9751 8 16.9751C10.173 16.9751 10.444 16.9651 11.298 16.9271C12.149 16.8871 12.732 16.7531 13.241 16.5551C13.7746 16.3542 14.2578 16.0392 14.657 15.6321C15.102 15.1871 15.375 14.7411 15.58 14.2151C15.777 13.7061 15.912 13.1251 15.952 12.2731C15.99 11.4201 16 11.1481 16 8.9751C16 6.8021 15.99 6.5301 15.952 5.6761C15.912 4.8251 15.777 4.2431 15.58 3.7351C15.3789 3.20132 15.0639 2.71777 14.657 2.3181C14.2576 1.91077 13.774 1.59574 13.24 1.3951C12.73 1.1971 12.148 1.0621 11.297 1.0231C10.443 0.985098 10.172 0.975098 7.998 0.975098H8.001H8ZM7.283 2.4171H8.001C10.137 2.4171 10.39 2.4241 11.233 2.4631C12.013 2.4981 12.437 2.6291 12.719 2.7381C13.092 2.8831 13.359 3.0571 13.639 3.3371C13.919 3.6171 14.092 3.8831 14.237 4.2571C14.347 4.5381 14.477 4.9621 14.512 5.7421C14.551 6.5851 14.559 6.8381 14.559 8.9731C14.559 11.1081 14.551 11.3621 14.512 12.2051C14.477 12.9851 14.346 13.4081 14.237 13.6901C14.1087 14.0375 13.904 14.3515 13.638 14.6091C13.358 14.8891 13.092 15.0621 12.718 15.2071C12.438 15.3171 12.014 15.4471 11.233 15.4831C10.39 15.5211 10.137 15.5301 8.001 15.5301C5.865 15.5301 5.611 15.5211 4.768 15.4831C3.988 15.4471 3.565 15.3171 3.283 15.2071C2.9355 15.079 2.62113 14.8747 2.363 14.6091C2.09675 14.3511 1.89172 14.0368 1.763 13.6891C1.654 13.4081 1.523 12.9841 1.488 12.2041C1.45 11.3611 1.442 11.1081 1.442 8.9711C1.442 6.8351 1.45 6.5831 1.488 5.7401C1.524 4.9601 1.654 4.5361 1.764 4.2541C1.909 3.8811 2.083 3.6141 2.363 3.3341C2.643 3.0541 2.909 2.8811 3.283 2.7361C3.565 2.6261 3.988 2.4961 4.768 2.4601C5.506 2.4261 5.792 2.4161 7.283 2.4151V2.4171ZM12.271 3.7451C12.1449 3.7451 12.0201 3.76993 11.9036 3.81817C11.7872 3.86642 11.6813 3.93713 11.5922 4.02628C11.503 4.11542 11.4323 4.22125 11.3841 4.33772C11.3358 4.45419 11.311 4.57903 11.311 4.7051C11.311 4.83117 11.3358 4.956 11.3841 5.07247C11.4323 5.18895 11.503 5.29478 11.5922 5.38392C11.6813 5.47306 11.7872 5.54378 11.9036 5.59202C12.0201 5.64027 12.1449 5.6651 12.271 5.6651C12.5256 5.6651 12.7698 5.56396 12.9498 5.38392C13.1299 5.20389 13.231 4.95971 13.231 4.7051C13.231 4.45049 13.1299 4.20631 12.9498 4.02628C12.7698 3.84624 12.5256 3.7451 12.271 3.7451ZM8.001 4.8671C7.45607 4.8586 6.91489 4.95858 6.40898 5.16124C5.90306 5.36389 5.44251 5.66517 5.05415 6.04752C4.66579 6.42987 4.35736 6.88566 4.14684 7.38836C3.93632 7.89105 3.8279 8.4306 3.8279 8.9756C3.8279 9.52059 3.93632 10.0601 4.14684 10.5628C4.35736 11.0655 4.66579 11.5213 5.05415 11.9037C5.44251 12.286 5.90306 12.5873 6.40898 12.79C6.91489 12.9926 7.45607 13.0926 8.001 13.0841C9.07954 13.0673 10.1082 12.627 10.865 11.8583C11.6217 11.0897 12.0459 10.0543 12.0459 8.9756C12.0459 7.89692 11.6217 6.86151 10.865 6.09285C10.1082 5.32418 9.07954 4.88392 8.001 4.8671ZM8.001 6.3081C8.70833 6.3081 9.38669 6.58908 9.88685 7.08924C10.387 7.5894 10.668 8.26777 10.668 8.9751C10.668 9.68243 10.387 10.3608 9.88685 10.861C9.38669 11.3611 8.70833 11.6421 8.001 11.6421C7.29367 11.6421 6.61531 11.3611 6.11515 10.861C5.61499 10.3608 5.334 9.68243 5.334 8.9751C5.334 8.26777 5.61499 7.5894 6.11515 7.08924C6.61531 6.58908 7.29367 6.3081 8.001 6.3081Z" fill="white"/>
</svg>
