<svg width="18" height="19" viewBox="0 0 18 19" fill="none" xmlns="http://www.w3.org/2000/svg">
<path id="Vector" d="M16 0.975098C16.5304 0.975098 17.0391 1.18581 17.4142 1.56088C17.7893 1.93596 18 2.44466 18 2.9751V16.9751C18 17.5055 17.7893 18.0142 17.4142 18.3893C17.0391 18.7644 16.5304 18.9751 16 18.9751H2C1.46957 18.9751 0.960859 18.7644 0.585786 18.3893C0.210714 18.0142 0 17.5055 0 16.9751V2.9751C0 2.44466 0.210714 1.93596 0.585786 1.56088C0.960859 1.18581 1.46957 0.975098 2 0.975098H16ZM15.5 16.4751V11.1751C15.5 10.3105 15.1565 9.4813 14.5452 8.86993C13.9338 8.25856 13.1046 7.9151 12.24 7.9151C11.39 7.9151 10.4 8.4351 9.92 9.2151V8.1051H7.13V16.4751H9.92V11.5451C9.92 10.7751 10.54 10.1451 11.31 10.1451C11.6813 10.1451 12.0374 10.2926 12.2999 10.5551C12.5625 10.8177 12.71 11.1738 12.71 11.5451V16.4751H15.5ZM3.88 6.5351C4.32556 6.5351 4.75288 6.3581 5.06794 6.04304C5.383 5.72798 5.56 5.30066 5.56 4.8551C5.56 3.9251 4.81 3.1651 3.88 3.1651C3.43178 3.1651 3.00193 3.34315 2.68499 3.66009C2.36805 3.97702 2.19 4.40688 2.19 4.8551C2.19 5.7851 2.95 6.5351 3.88 6.5351ZM5.27 16.4751V8.1051H2.5V16.4751H5.27Z" fill="white"/>
</svg>
