<svg width="21" height="15" viewBox="0 0 21 15" fill="none" xmlns="http://www.w3.org/2000/svg">
<path d="M0.177734 14.8818V8.88184C0.177734 8.43184 0.269401 8.0235 0.452734 7.65684C0.636068 7.29017 0.877734 6.96517 1.17773 6.68184V3.88184C1.17773 3.0485 1.4694 2.34017 2.05273 1.75684C2.63607 1.1735 3.3444 0.881836 4.17773 0.881836H8.17773C8.56107 0.881836 8.9194 0.952836 9.25273 1.09484C9.58607 1.23684 9.8944 1.4325 10.1777 1.68184C10.4611 1.43184 10.7694 1.23617 11.1027 1.09484C11.4361 0.953502 11.7944 0.882503 12.1777 0.881836H16.1777C17.0111 0.881836 17.7194 1.1735 18.3027 1.75684C18.8861 2.34017 19.1777 3.0485 19.1777 3.88184V6.68184C19.4777 6.96517 19.7194 7.29017 19.9027 7.65684C20.0861 8.0235 20.1777 8.43184 20.1777 8.88184V14.8818H18.1777V12.8818H2.17773V14.8818H0.177734ZM11.1777 5.88184H17.1777V3.88184C17.1777 3.5985 17.0817 3.36084 16.8897 3.16884C16.6977 2.97684 16.4604 2.88117 16.1777 2.88184H12.1777C11.8944 2.88184 11.6567 2.97784 11.4647 3.16984C11.2727 3.36184 11.1771 3.59917 11.1777 3.88184V5.88184ZM3.17773 5.88184H9.17773V3.88184C9.17773 3.5985 9.08173 3.36084 8.88973 3.16884C8.69773 2.97684 8.4604 2.88117 8.17773 2.88184H4.17773C3.8944 2.88184 3.65673 2.97784 3.46473 3.16984C3.27273 3.36184 3.17707 3.59917 3.17773 3.88184V5.88184Z" fill="white" fill-opacity="0.4"/>
</svg>
