<svg width="21" height="20" viewBox="0 0 21 20" fill="none" xmlns="http://www.w3.org/2000/svg">
<path d="M19.1777 7.38162H5.17773V4.49462C5.17773 3.49762 5.85573 2.57162 6.83873 2.40962C7.12586 2.36076 7.42019 2.37511 7.7012 2.45166C7.98221 2.52821 8.24315 2.66513 8.46583 2.85286C8.6885 3.0406 8.86756 3.27464 8.99051 3.53867C9.11346 3.8027 9.17735 4.09036 9.17773 4.38162H11.1777C11.1773 3.82292 11.0598 3.2705 10.833 2.75992C10.6062 2.24933 10.275 1.79188 9.86072 1.417C9.44646 1.04212 8.95832 0.758101 8.42769 0.583225C7.89707 0.408349 7.33571 0.346486 6.77973 0.401617C4.70073 0.603617 3.17773 2.47062 3.17773 4.55962V7.38162H1.17773C0.912518 7.38162 0.658164 7.48697 0.470628 7.67451C0.283091 7.86205 0.177734 8.1164 0.177734 8.38162V10.3816C0.177734 12.9876 1.85173 15.2046 4.17773 16.0316V19.3816H6.17773V16.3816H14.1777V19.3816H16.1777V16.0316C18.5037 15.2046 20.1777 12.9876 20.1777 10.3816V8.38162C20.1777 8.1164 20.0724 7.86205 19.8848 7.67451C19.6973 7.48697 19.443 7.38162 19.1777 7.38162Z" fill="white" fill-opacity="0.4"/>
</svg>
