<svg width="20" height="17" viewBox="0 0 20 17" fill="none" xmlns="http://www.w3.org/2000/svg">
<path id="Vector" d="M10.244 0.975586C10.778 0.978586 12.114 0.991586 13.534 1.04859L14.038 1.07059C15.467 1.13759 16.895 1.25359 17.604 1.45059C18.549 1.71659 19.291 2.49059 19.542 3.47259C19.942 5.03259 19.992 8.07459 19.998 8.81159L19.999 8.96359V9.13759C19.992 9.87459 19.942 12.9176 19.542 14.4766C19.288 15.4616 18.545 16.2366 17.604 16.4986C16.895 16.6956 15.467 16.8116 14.038 16.8786L13.534 16.9016C12.114 16.9576 10.778 16.9716 10.244 16.9736L10.009 16.9746H9.754C8.624 16.9676 3.898 16.9166 2.394 16.4986C1.45 16.2326 0.707 15.4586 0.456 14.4766C0.0560001 12.9166 0.006 9.87459 0 9.13759V8.81159C0.006 8.07459 0.0560001 5.03159 0.456 3.47259C0.71 2.48759 1.453 1.71259 2.395 1.45159C3.898 1.03259 8.625 0.981586 9.755 0.975586H10.244ZM7.999 5.47559V12.4756L13.999 8.97559L7.999 5.47559Z" fill="white"/>
</svg>
